HIERARCHY
ROOT Hips
{
	OFFSET 0.000000 71.427986 0.000000
	CHANNELS 6 Xposition Yposition Zposition Xrotation Yrotation Zrotation
	JOINT Pelvis
	{
		OFFSET 0.000000 0.000000 0.000000
		CHANNELS 3 Xrotation Yrotation Zrotation
		JOINT LeftUpLeg
		{
			OFFSET 6.797100 -2.508499 -1.318700
			CHANNELS 3 Xrotation Yrotation Zrotation
			JOINT LeftLeg
			{
				OFFSET 0.069008 -29.241863 0.690200
				CHANNELS 3 Xrotation Yrotation Zrotation
				JOINT LeftFoot
				{
					OFFSET -0.069008 -29.568123 -0.266800
					CHANNELS 3 Xrotation Yrotation Zrotation
					JOINT LeftToeBase
					{
						OFFSET 3.145500 -8.631000 16.059900
						CHANNELS 3 Xrotation Yrotation Zrotation
						End Site
						{
							OFFSET 0.000000 18.501587 0.000000
						}
					}
				}
			}
			JOINT Left_ShortSleeve
			{
				OFFSET 0.265923 -10.480953 1.153800
				CHANNELS 3 Xrotation Yrotation Zrotation
				End Site
				{
					OFFSET 1.725763 19.823879 0.000000
				}
			}
		}
		JOINT RightUpLeg
		{
			OFFSET -6.797100 -2.508499 -1.318700
			CHANNELS 3 Xrotation Yrotation Zrotation
			JOINT RightLeg
			{
				OFFSET -0.082453 -29.241932 0.688000
				CHANNELS 3 Xrotation Yrotation Zrotation
				JOINT RightFoot
				{
					OFFSET 0.082453 -29.568058 -0.264600
					CHANNELS 3 Xrotation Yrotation Zrotation
					JOINT RightToeBase
					{
						OFFSET -3.115300 -8.682800 16.113400
						CHANNELS 3 Xrotation Yrotation Zrotation
						End Site
						{
							OFFSET 0.000000 18.567114 0.000000
						}
					}
				}
			}
			JOINT Right_ShortSleeve
			{
				OFFSET -0.265923 -10.480953 1.153800
				CHANNELS 3 Xrotation Yrotation Zrotation
				End Site
				{
					OFFSET -1.725766 19.823910 0.000000
				}
			}
		}
	}
	JOINT Spine
	{
		OFFSET 0.000000 13.368103 0.470500
		CHANNELS 3 Xrotation Yrotation Zrotation
		JOINT Spine1
		{
			OFFSET 0.147000 13.837402 0.538800
			CHANNELS 3 Xrotation Yrotation Zrotation
			JOINT Spine2
			{
				OFFSET 0.168000 16.242897 -1.435500
				CHANNELS 3 Xrotation Yrotation Zrotation
				JOINT Neck
				{
					OFFSET 0.217200 18.631500 -1.679100
					CHANNELS 3 Xrotation Yrotation Zrotation
					JOINT Head
					{
						OFFSET 0.000000 6.599396 1.385900
						CHANNELS 3 Xrotation Yrotation Zrotation
						JOINT Hat
						{
							OFFSET -0.532200 27.220596 -10.096100
							CHANNELS 3 Xrotation Yrotation Zrotation
							End Site
							{
								OFFSET 0.000000 22.029861 0.000000
							}
						}
						JOINT HairD
						{
							OFFSET -10.777400 17.437393 -1.325900
							CHANNELS 3 Xrotation Yrotation Zrotation
							JOINT HairD1
							{
								OFFSET -3.290299 -11.051193 1.062200
								CHANNELS 3 Xrotation Yrotation Zrotation
								End Site
								{
									OFFSET 0.000000 11.579437 0.000000
								}
							}
						}
						JOINT HairB
						{
							OFFSET -10.777400 17.437393 1.467900
							CHANNELS 3 Xrotation Yrotation Zrotation
							JOINT HairB1
							{
								OFFSET -1.561200 -12.956299 3.590200
								CHANNELS 3 Xrotation Yrotation Zrotation
								End Site
								{
									OFFSET 0.000000 13.534866 0.000000
								}
							}
						}
						JOINT HairA
						{
							OFFSET 9.713100 17.437393 1.467900
							CHANNELS 3 Xrotation Yrotation Zrotation
							JOINT HairA1
							{
								OFFSET 1.561200 -12.956299 3.590200
								CHANNELS 3 Xrotation Yrotation Zrotation
								End Site
								{
									OFFSET 0.000000 13.534866 0.000000
								}
							}
						}
						JOINT HairC
						{
							OFFSET 9.713100 17.437393 -1.325900
							CHANNELS 3 Xrotation Yrotation Zrotation
							JOINT HairC1
							{
								OFFSET 3.290300 -11.051193 1.062200
								CHANNELS 3 Xrotation Yrotation Zrotation
								End Site
								{
									OFFSET 0.000000 11.579437 0.000000
								}
							}
						}
					}
				}
				JOINT LeftShoulder
				{
					OFFSET 5.101800 15.108002 -2.763700
					CHANNELS 3 Xrotation Yrotation Zrotation
					JOINT LeftArm
					{
						OFFSET 9.825497 2.506317 -1.597400
						CHANNELS 3 Xrotation Yrotation Zrotation
						JOINT LeftForeArm
						{
							OFFSET 21.966244 0.000000 0.000000
							CHANNELS 3 Xrotation Yrotation Zrotation
							JOINT LeftHand
							{
								OFFSET 33.879036 0.000000 0.000000
								CHANNELS 3 Xrotation Yrotation Zrotation
								JOINT LeftHandThumb1
								{
									OFFSET 6.715286 -2.359680 3.363841
									CHANNELS 3 Xrotation Yrotation Zrotation
									JOINT LeftHandThumb2
									{
										OFFSET 2.507072 -1.447464 1.447461
										CHANNELS 3 Xrotation Yrotation Zrotation
										JOINT LeftHandThumb3
										{
											OFFSET 2.898338 -1.673355 1.673357
											CHANNELS 3 Xrotation Yrotation Zrotation
											End Site
											{
												OFFSET -0.295959 3.727692 -0.131651
											}
										}
									}
								}
								JOINT LeftHandIndex1
								{
									OFFSET 14.190811 -0.254547 3.840278
									CHANNELS 3 Xrotation Yrotation Zrotation
									JOINT LeftHandIndex2
									{
										OFFSET 3.551727 0.000000 -0.000000
										CHANNELS 3 Xrotation Yrotation Zrotation
										JOINT LeftHandIndex3
										{
											OFFSET 2.894196 0.000000 0.000000
											CHANNELS 3 Xrotation Yrotation Zrotation
											End Site
											{
												OFFSET -1.000603 2.690872 0.366626
											}
										}
									}
								}
								JOINT LeftHandMiddle1
								{
									OFFSET 13.776489 0.000000 0.000000
									CHANNELS 3 Xrotation Yrotation Zrotation
									JOINT LeftHandMiddle2
									{
										OFFSET 3.438232 0.000000 0.000000
										CHANNELS 3 Xrotation Yrotation Zrotation
										JOINT LeftHandMiddle3
										{
											OFFSET 3.691551 0.000000 0.000000
											CHANNELS 3 Xrotation Yrotation Zrotation
											End Site
											{
												OFFSET -1.082298 3.499527 0.457670
											}
										}
									}
								}
								JOINT LeftHandRing1
								{
									OFFSET 13.966164 -0.268127 -3.067488
									CHANNELS 3 Xrotation Yrotation Zrotation
									JOINT LeftHandRing2
									{
										OFFSET 3.162567 0.000000 0.000000
										CHANNELS 3 Xrotation Yrotation Zrotation
										JOINT LeftHandRing3
										{
											OFFSET 3.324348 0.000000 0.000000
											CHANNELS 3 Xrotation Yrotation Zrotation
											End Site
											{
												OFFSET -0.861900 3.184998 0.405154
											}
										}
									}
								}
								JOINT LeftHandPinky1
								{
									OFFSET 13.131393 -0.168503 -5.746925
									CHANNELS 3 Xrotation Yrotation Zrotation
									JOINT LeftHandPinky2
									{
										OFFSET 2.849182 0.000000 0.000000
										CHANNELS 3 Xrotation Yrotation Zrotation
										JOINT LeftHandPinky3
										{
											OFFSET 2.805038 0.000000 0.000000
											CHANNELS 3 Xrotation Yrotation Zrotation
											End Site
											{
												OFFSET -0.882500 2.642609 0.325652
											}
										}
									}
								}
							}
							JOINT Left_Sleeve
							{
								OFFSET 6.592125 -0.646545 0.805568
								CHANNELS 3 Xrotation Yrotation Zrotation
								End Site
								{
									OFFSET -0.000179 20.275787 -0.000000
								}
							}
						}
					}
				}
				JOINT RightShoulder
				{
					OFFSET -5.731700 15.108002 -2.763700
					CHANNELS 3 Xrotation Yrotation Zrotation
					JOINT RightArm
					{
						OFFSET -9.825497 2.506317 -1.597400
						CHANNELS 3 Xrotation Yrotation Zrotation
						JOINT RightForeArm
						{
							OFFSET -21.966242 0.000000 0.000000
							CHANNELS 3 Xrotation Yrotation Zrotation
							JOINT RightHand
							{
								OFFSET -33.879032 0.000000 0.000000
								CHANNELS 3 Xrotation Yrotation Zrotation
								JOINT RightHandThumb1
								{
									OFFSET -6.715286 -2.359680 3.363841
									CHANNELS 3 Xrotation Yrotation Zrotation
									JOINT RightHandThumb2
									{
										OFFSET -2.507072 -1.447464 1.447461
										CHANNELS 3 Xrotation Yrotation Zrotation
										JOINT RightHandThumb3
										{
											OFFSET -2.898338 -1.673355 1.673357
											CHANNELS 3 Xrotation Yrotation Zrotation
											End Site
											{
												OFFSET 0.295959 3.727692 -0.131651
											}
										}
									}
								}
								JOINT RightHandIndex1
								{
									OFFSET -14.190811 -0.254547 3.840278
									CHANNELS 3 Xrotation Yrotation Zrotation
									JOINT RightHandIndex2
									{
										OFFSET -3.551727 0.000000 -0.000000
										CHANNELS 3 Xrotation Yrotation Zrotation
										JOINT RightHandIndex3
										{
											OFFSET -2.894196 0.000000 0.000000
											CHANNELS 3 Xrotation Yrotation Zrotation
											End Site
											{
												OFFSET 1.000603 2.690872 0.366626
											}
										}
									}
								}
								JOINT RightHandMiddle1
								{
									OFFSET -13.776489 0.000000 0.000000
									CHANNELS 3 Xrotation Yrotation Zrotation
									JOINT RightHandMiddle2
									{
										OFFSET -3.438232 0.000000 0.000000
										CHANNELS 3 Xrotation Yrotation Zrotation
										JOINT RightHandMiddle3
										{
											OFFSET -3.691551 0.000000 0.000000
											CHANNELS 3 Xrotation Yrotation Zrotation
											End Site
											{
												OFFSET 1.082298 3.499527 0.457670
											}
										}
									}
								}
								JOINT RightHandRing1
								{
									OFFSET -13.966164 -0.268127 -3.067488
									CHANNELS 3 Xrotation Yrotation Zrotation
									JOINT RightHandRing2
									{
										OFFSET -3.162567 0.000000 0.000000
										CHANNELS 3 Xrotation Yrotation Zrotation
										JOINT RightHandRing3
										{
											OFFSET -3.324348 0.000000 0.000000
											CHANNELS 3 Xrotation Yrotation Zrotation
											End Site
											{
												OFFSET 0.861900 3.184998 0.405154
											}
										}
									}
								}
								JOINT RightHandPinky1
								{
									OFFSET -13.131393 -0.168503 -5.746925
									CHANNELS 3 Xrotation Yrotation Zrotation
									JOINT RightHandPinky2
									{
										OFFSET -2.849182 0.000000 0.000000
										CHANNELS 3 Xrotation Yrotation Zrotation
										JOINT RightHandPinky3
										{
											OFFSET -2.805038 0.000000 0.000000
											CHANNELS 3 Xrotation Yrotation Zrotation
											End Site
											{
												OFFSET 0.882500 2.642609 0.325652
											}
										}
									}
								}
							}
							JOINT Right_Sleeve
							{
								OFFSET -6.592125 -0.646545 0.805568
								CHANNELS 3 Xrotation Yrotation Zrotation
								End Site
								{
									OFFSET 0.000179 20.275787 -0.000000
								}
							}
						}
					}
				}
				JOINT Bind_Right_JacketString
				{
					OFFSET -3.534800 11.969597 7.200700
					CHANNELS 3 Xrotation Yrotation Zrotation
					JOINT Bind_Right_JacketString1
					{
						OFFSET -0.319900 -6.102600 2.794100
						CHANNELS 3 Xrotation Yrotation Zrotation
						End Site
						{
							OFFSET 0.000000 6.719452 0.000000
						}
					}
				}
				JOINT Bind_Left_JacketString
				{
					OFFSET 2.904800 11.969597 7.200700
					CHANNELS 3 Xrotation Yrotation Zrotation
					JOINT Bind_Left_JacketString1
					{
						OFFSET 0.364800 -5.904503 3.186800
						CHANNELS 3 Xrotation Yrotation Zrotation
						End Site
						{
							OFFSET 0.000000 6.719513 0.000000
						}
					}
				}
				JOINT HairE
				{
					OFFSET 5.915200 17.612701 -11.592200
					CHANNELS 3 Xrotation Yrotation Zrotation
					JOINT HairE1
					{
						OFFSET 0.289200 -7.171898 -1.284500
						CHANNELS 3 Xrotation Yrotation Zrotation
						End Site
						{
							OFFSET 0.000000 7.291756 0.000000
						}
					}
				}
				JOINT HairF
				{
					OFFSET -0.864800 17.612701 -11.592200
					CHANNELS 3 Xrotation Yrotation Zrotation
					JOINT HairF1
					{
						OFFSET 0.000000 -14.087097 -2.127501
						CHANNELS 3 Xrotation Yrotation Zrotation
						End Site
						{
							OFFSET 0.000000 14.246841 0.000000
						}
					}
				}
				JOINT HairG
				{
					OFFSET -8.087700 17.612701 -11.592200
					CHANNELS 3 Xrotation Yrotation Zrotation
					JOINT HairG1
					{
						OFFSET -0.293600 -6.081398 -0.910100
						CHANNELS 3 Xrotation Yrotation Zrotation
						End Site
						{
							OFFSET 0.000000 6.156120 0.000000
						}
					}
				}
			}
		}
	}
	JOINT Pouch
	{
		OFFSET 0.000000 4.394501 10.847300
		CHANNELS 3 Xrotation Yrotation Zrotation
		End Site
		{
			OFFSET 0.000000 21.880577 0.000000
		}
	}
	JOINT Bag
	{
		OFFSET -13.229000 4.813004 -0.593300
		CHANNELS 3 Xrotation Yrotation Zrotation
		End Site
		{
			OFFSET 0.000000 21.880577 0.000000
		}
	}
	JOINT OccupyGuyFacialAnim_Joint
	{
		OFFSET 1.000000 -70.206398 -1.655000
		CHANNELS 3 Xrotation Yrotation Zrotation
		End Site
		{
			OFFSET 0.000000 21.880577 0.000000
		}
	}
}
MOTION
Frames: 4
Frame Time: 0.033333
-0.133062 69.933640 1.495380 -2.389502 2.490306 -1.983916 0.000000 -0.000000 0.000000 -27.284422 4.373750 5.657750 61.448623 1.461833 0.577080 -5.012468 0.703450 -7.711425 0.000001 0.000000 -0.000000 0.000003 -0.000001 -0.000000 -6.340089 -4.403313 6.156834 26.527353 6.836001 1.152195 -14.793474 1.858518 -9.794140 -0.000000 -0.000000 0.000000 -0.000001 0.000000 -0.000000 14.317745 1.101238 2.560670 -4.344021 0.844263 -0.932464 -4.329084 0.772024 -1.030092 -0.101181 -1.689953 2.622487 -5.840023 -0.460700 -1.540028 -0.000000 0.000000 -0.000000 -0.000000 0.000000 -0.000000 -0.000000 0.000000 0.000000 -0.000000 0.000000 -0.000000 -0.000000 0.000000 0.000000 -0.000000 0.000000 -0.000000 -0.000000 0.000000 0.000000 -0.000000 0.000000 -0.000000 -0.000000 0.000000 -0.000000 2.370591 2.599456 -1.341556 -3.622039 -8.176799 -74.042208 12.004580 -10.521217 -9.011730 -0.378881 1.905047 11.578235 -4.982848 13.405848 11.311746 3.517324 8.486186 1.851492 -0.000001 0.000001 -0.000002 0.376731 -6.145583 -25.285032 -0.034550 0.056858 -22.183899 0.000003 0.000000 -0.000000 -0.682838 -5.541192 -29.068377 -0.000893 0.003745 -24.675182 0.000002 0.000000 -0.000001 -1.915514 -6.193635 -34.198522 0.001232 0.005496 -28.105327 -0.000001 0.000001 -0.000003 -3.466229 -6.910102 -39.124645 -0.009179 0.002706 -31.381663 0.000002 -0.000001 0.000003 0.000003 -0.000001 0.000000 3.460703 0.236086 4.393011 -1.477852 25.831504 70.378590 6.809930 19.846173 4.732072 -19.537572 0.958303 -12.165075 -0.782972 -20.555729 -5.075688 4.541213 -11.071039 -2.314896 0.000001 -0.000001 0.000001 0.748720 1.485559 23.202825 -0.036706 -0.055028 19.908337 -0.000002 -0.000001 -0.000003 -0.268002 2.185018 25.525059 -0.000270 0.002730 21.457823 0.000001 -0.000002 -0.000001 -1.284803 3.638259 29.547842 0.000966 -0.004723 24.164371 -0.000001 0.000003 0.000004 -2.714515 5.335789 33.797453 0.001124 -0.005458 26.995351 0.000002 -0.000001 -0.000001 0.000000 -0.000000 0.000000 0.000000 0.000000 -0.000000 0.000000 -0.000000 -0.000000 0.000000 0.000000 0.000000 0.000000 0.000000 0.000000 0.000000 0.000000 -0.000000 0.000000 -0.000000 0.000000 0.000000 0.000000 0.000000 0.000000 0.000000 0.000000 0.000000 0.000000 -0.000000 0.000000 -0.000000 0.000000 0.000000 -0.000000 0.000000 0.000000 -0.000000 0.000000 0.000000 -0.000000 0.000000 
-0.124316 69.919289 4.253592 -1.314324 1.508598 -1.598264 0.000000 0.000000 -0.000000 -29.480077 4.883699 4.689396 52.094836 1.793229 0.454015 -8.567864 0.823801 -7.445891 0.000000 -0.000000 0.000000 0.000004 -0.000001 -0.000000 -4.202997 -3.651310 5.885015 25.199191 7.212995 1.148082 -16.321343 2.013574 -10.219845 0.000000 -0.000001 0.000000 0.000000 -0.000000 0.000000 13.014800 1.545006 2.499129 -4.125094 1.532207 -1.403119 -4.070232 1.398712 -1.566230 0.142323 -1.905975 2.348120 -6.300359 -0.776093 -1.461701 -0.000000 0.000000 -0.000000 -0.000000 0.000000 -0.000000 -0.000000 0.000000 -0.000000 -0.000000 0.000000 0.000000 -0.000000 0.000000 0.000000 -0.000000 0.000000 0.000000 -0.000000 0.000000 0.000000 -0.000000 0.000000 -0.000000 -0.000000 0.000000 -0.000000 2.362340 3.060827 -1.073031 -1.203796 -6.539441 -74.187732 13.294410 -9.876670 -9.498369 -0.405356 2.517450 10.757217 -4.324897 14.560273 10.366748 3.955777 9.591045 2.057026 -0.000000 0.000002 0.000000 0.406194 -5.396403 -25.843641 -0.034360 0.057101 -22.413349 0.000002 0.000001 0.000002 -0.631916 -5.001123 -29.386783 -0.000470 0.004072 -24.753586 -0.000000 -0.000001 -0.000001 -1.819459 -5.782482 -34.336146 0.001207 0.005227 -28.067728 -0.000002 -0.000001 -0.000002 -3.346202 -6.657191 -39.151792 -0.009440 0.002218 -31.272602 -0.000001 0.000000 0.000003 -0.000001 -0.000000 -0.000000 3.435040 0.328749 4.457093 -3.168562 25.385385 70.944103 5.229888 23.190900 1.846684 -17.146534 0.438950 -10.811799 -0.686890 -18.291043 -5.200066 5.140483 -11.176723 -1.563456 -0.000002 0.000000 -0.000000 1.023639 1.150856 19.854593 -0.022643 -0.095939 19.371817 0.000002 0.000001 0.000001 -0.471135 1.016501 23.006044 0.022649 -0.136066 22.371685 0.000003 0.000000 0.000001 -1.411748 1.106331 25.926829 -0.016270 -0.078694 25.809840 0.000000 0.000000 0.000003 -3.028486 2.090409 32.014545 0.005750 -0.057438 28.446071 0.000001 0.000000 -0.000003 0.000000 -0.000002 0.000002 -0.000000 -0.000000 0.000000 -0.000000 -0.000000 0.000000 -0.000000 -0.000000 0.000000 -0.000000 -0.000000 0.000000 -0.000000 -0.000000 0.000000 -0.000000 -0.000000 0.000000 -0.000000 -0.000000 0.000000 -0.000000 -0.000000 0.000000 -0.000000 -0.000000 0.000000 -0.000000 -0.000000 0.000000 0.000000 0.000000 -0.000000 0.000000 0.000000 -0.000000 0.000000 0.000000 -0.000000 
-0.105649 69.819870 7.105038 -0.745318 0.916598 -1.330138 -0.000000 -0.000000 0.000000 -29.900618 5.051644 3.809821 40.086619 2.693709 0.299080 -9.214859 0.758755 -6.835131 0.000000 0.000001 -0.000000 -0.000001 -0.000000 -0.000000 -1.177729 -3.851441 5.527074 23.624817 8.180533 1.173924 -18.005936 2.202725 -10.670256 -0.000000 -0.000000 0.000000 -0.000000 0.000000 -0.000000 12.460578 1.851959 3.021839 -3.889756 2.149795 -2.322749 -3.782297 1.910400 -2.540555 -0.072436 -2.453710 3.429867 -6.750150 -0.757211 -2.193759 -0.000000 0.000000 -0.000000 -0.000000 0.000000 -0.000000 -0.000000 0.000000 -0.000000 -0.000000 0.000000 0.000000 -0.000000 -0.000000 0.000000 -0.000000 0.000000 0.000000 -0.000000 -0.000000 0.000000 -0.000000 0.000000 -0.000000 -0.000000 0.000000 -0.000000 2.249160 2.903713 0.532974 0.800365 -4.350793 -75.238577 14.287632 -8.762051 -9.911454 -0.356261 2.159966 10.657020 -3.565296 15.879469 9.259363 4.456476 10.858408 2.280133 -0.000001 -0.000002 -0.000000 0.447035 -4.538415 -26.478765 -0.034173 0.057379 -22.676206 0.000001 0.000001 -0.000002 -0.566163 -4.383210 -29.749138 -0.000032 0.004460 -24.843309 0.000002 0.000000 0.000004 -1.706998 -5.312035 -34.492875 0.001201 0.004949 -28.024585 0.000001 0.000000 -0.000005 -3.208409 -6.367583 -39.183036 -0.009741 0.001650 -31.147753 0.000000 -0.000000 -0.000002 0.000001 -0.000000 -0.000000 3.534760 -0.178409 5.400444 -5.484020 26.057812 71.661430 4.563274 25.863792 -1.628385 -15.395653 0.581871 -9.232313 -0.603143 -15.857466 -5.376134 5.820278 -11.275602 -0.698826 -0.000000 -0.000001 0.000000 1.264708 0.786053 16.238092 -0.007505 -0.143060 18.784205 0.000001 0.000002 -0.000001 -0.809686 -0.199873 20.270345 0.048694 -0.294939 23.350274 0.000003 -0.000002 -0.000003 -1.910174 -1.578619 21.970845 -0.031154 -0.164473 27.578982 -0.000000 -0.000001 0.000001 -3.595130 -1.374678 29.982430 0.011048 -0.116646 30.008422 0.000000 -0.000001 -0.000003 0.000001 -0.000001 0.000001 -0.000000 0.000000 -0.000000 0.000000 0.000000 -0.000000 -0.000000 0.000000 -0.000000 -0.000000 0.000000 -0.000000 -0.000000 0.000000 -0.000000 0.000000 0.000000 -0.000000 -0.000000 0.000000 -0.000000 -0.000000 0.000000 -0.000000 -0.000000 0.000000 -0.000000 0.000000 0.000000 -0.000000 -0.000000 -0.000000 0.000000 -0.000000 -0.000000 0.000000 -0.000000 -0.000000 0.000000 
-0.070336 69.651360 9.918381 -0.166175 0.239112 -1.384478 0.000000 -0.000000 -0.000000 -29.878943 4.473566 3.206272 28.454319 1.625864 0.185520 -9.483401 0.804952 -6.685456 0.000000 -0.000000 -0.000000 -0.000002 0.000000 -0.000000 2.128007 -3.838926 5.351274 21.193959 9.489581 1.231811 -18.849000 2.177243 -10.404680 0.000000 -0.000000 -0.000000 0.000000 -0.000000 -0.000000 11.965261 2.099030 3.081945 -3.850814 2.360277 -2.372602 -3.727057 2.138748 -2.609707 0.303291 -2.248078 2.672305 -7.304940 -0.855760 -1.958527 0.000000 -0.000000 0.000000 0.000000 -0.000000 0.000000 0.000000 -0.000000 0.000000 0.000000 -0.000000 -0.000000 0.000000 -0.000000 -0.000000 0.000000 -0.000000 -0.000000 0.000000 -0.000000 -0.000000 0.000000 -0.000000 0.000000 0.000000 -0.000000 0.000000 2.290707 3.386099 -0.097662 2.987644 -2.205878 -75.303997 15.404028 -7.888949 -10.197895 -0.523822 3.382631 10.976996 -2.773782 17.236479 8.088018 4.969890 12.167977 2.500004 0.000001 0.000001 -0.000001 0.511257 -3.654354 -27.127749 -0.033951 0.057682 -22.947416 0.000002 0.000001 -0.000004 -0.490085 -3.746592 -30.120489 0.000446 0.004848 -24.935846 0.000000 -0.000001 0.000001 -1.588273 -4.827346 -34.653860 0.001158 0.004645 -27.980237 -0.000000 0.000001 0.000000 -3.065987 -6.068996 -39.215565 -0.010035 0.001054 -31.018884 0.000002 -0.000001 -0.000001 0.000002 0.000000 -0.000000 3.485105 0.200316 4.887428 -7.887109 26.667855 73.087921 4.411589 27.892963 -4.963258 -14.138375 1.208992 -7.871525 -0.538204 -13.464079 -5.590124 6.482384 -11.363263 0.146755 0.000001 0.000000 0.000002 1.458802 0.390996 12.679542 0.006328 -0.189285 18.206822 -0.000002 -0.000002 0.000003 -1.255976 -1.370557 17.556750 0.074205 -0.449778 24.315952 0.000002 -0.000004 0.000000 -2.761971 -4.157535 17.994424 -0.040482 -0.248942 29.323266 0.000000 0.000002 -0.000001 -4.393471 -4.745275 27.845061 0.016396 -0.173949 31.548521 -0.000001 -0.000002 -0.000001 0.000005 0.000002 0.000000 0.000001 0.000000 -0.000000 0.000001 0.000000 -0.000000 0.000001 0.000000 -0.000000 0.000001 0.000000 -0.000000 0.000001 0.000000 -0.000000 0.000001 0.000000 -0.000000 0.000001 0.000000 -0.000000 0.000001 0.000000 -0.000000 0.000001 0.000000 -0.000000 0.000001 0.000000 -0.000000 0.000000 -0.000000 -0.000000 0.000000 -0.000000 -0.000000 0.000000 -0.000000 -0.000000 
